<svg height="512pt" viewBox="0 0 512.00032 512" width="512pt" xmlns="http://www.w3.org/2000/svg"><path d="m272.429688 377.492188c12.550781-4.496094 23.871093-11.625 33.265624-21.015626 37.769532-37.769531 34.8125-102.183593-6.585937-143.585937-41.402344-41.398437-105.816406-44.355469-143.582031-6.585937-9.394532 9.394531-16.523438 20.714843-21.015625 33.265624-37.792969-3.175781-73.320313 9.230469-99.117188 35.027344-50.59375 50.59375-46.449219 137.066406 9.246094 192.761719s142.167969 59.84375 192.765625 9.246094c25.792969-25.796875 38.199219-61.324219 35.023438-99.113281zm0 0" fill="#f7b545"/><path d="m299.105469 212.894531c-41.402344-41.402343-105.8125-44.359375-143.582031-6.589843-9.390626 9.394531-16.519532 20.714843-21.015626 33.265624-37.789062-3.175781-73.316406 9.230469-99.113281 35.027344-50.597656 50.597656-46.449219 137.070313 9.246094 192.761719zm0 0" fill="#fecb5b"/><path d="m511.992188 62.324219c.097656-2.15625-.714844-4.25-2.242188-5.777344l-54.296875-54.296875c-1.523437-1.527344-3.621094-2.3398438-5.777344-2.2421875-2.15625.0976565-4.171875 1.1015625-5.550781 2.7578125l-68.210938 81.992187-161.777343 161.773438c-2.996094 3-2.996094 7.859375 0 10.859375l40.472656 40.472656c3 2.996094 7.859375 2.996094 10.859375 0l161.773438-161.777343 81.992187-68.207032c1.65625-1.382812 2.660156-3.398437 2.757813-5.554687zm0 0" fill="#8d92a1"/><path d="m455.453125 2.25c-1.523437-1.527344-3.621094-2.3398438-5.777344-2.2421875-2.15625.0976565-4.171875 1.1015625-5.550781 2.7578125l-68.210938 81.992187-161.777343 161.773438c-2.996094 3-2.996094 7.859375 0 10.859375l20.238281 20.234375 248.226562-248.226562zm0 0" fill="#c6c9d0"/><path d="m509.234375 67.878906c1.65625-1.382812 2.660156-3.398437 2.757813-5.554687.097656-2.15625-.714844-4.25-2.242188-5.777344l-54.296875-54.296875c-1.523437-1.527344-3.621094-2.3398438-5.777344-2.2421875-2.15625.0976565-4.171875 1.1015625-5.550781 2.7578125l-67.984375 81.71875 51.375 51.375zm0 0" fill="#f7b545"/><path d="m455.453125 2.25c-1.523437-1.527344-3.621094-2.3398438-5.777344-2.2421875-2.15625.0976565-4.171875 1.1015625-5.550781 2.7578125l-67.984375 81.71875 25.6875 25.6875 80.773437-80.773437zm0 0" fill="#fecb5b"/><path d="m256.832031 255.167969c-20.144531-20.144531-52.921875-20.144531-73.066406 0-20.140625 20.144531-20.144531 52.921875 0 73.066406 20.148437 20.144531 52.925781 20.144531 73.070313 0 20.140624-20.144531 20.140624-52.925781-.003907-73.066406zm0 0" fill="#8f5e3a"/><path d="m183.765625 255.164062c-20.144531 20.144532-20.144531 52.925782 0 73.070313l73.066406-73.066406c-20.144531-20.144531-52.917969-20.148438-73.066406-.003907zm0 0" fill="#a57e61"/><path d="m161.5625 421.351562-70.914062-70.914062c-5.996094-5.996094-5.996094-15.714844 0-21.714844 5.996093-5.996094 15.71875-5.996094 21.714843 0l70.914063 70.914063c5.996094 5.996093 5.996094 15.71875 0 21.714843-5.996094 5.996094-15.71875 5.996094-21.714844 0zm0 0" fill="#8d5c3a"/><path d="m112.363281 328.722656c-5.996093-5.996094-15.71875-5.996094-21.714843 0-5.996094 5.996094-5.996094 15.71875 0 21.714844l35.457031 35.457031 21.714843-21.714843zm0 0" fill="#a57e61"/></svg>